<svg id="Capa_1" data-name="Capa 1" xmlns="http://www.w3.org/2000/svg" viewBox="0 0 1000 1000"><path d="M795.7,699.24h-406c-4.95,0-10.13.46-15.05,0-11.28-1.06-16-9-19.45-18.34-8-21.95-15.28-44.2-22.92-66.29L247.42,369.1,187.08,194.62l-16.65,21.86H719.36c74.67,0,149.46-1.28,224.12,0,35.88.62,17.93,41.41,11.24,60.74L906.09,417.84,847.35,587.69c-11,31.92-20.44,65.12-33.32,96.36-3.38,8.19-8.84,14.65-18.33,15.19-22.1,1.24-22.25,35.79,0,34.53,47-2.65,55.62-52.08,68.12-88.2l56-161.92L977,318.44c10.83-31.31,33.43-72.89,17.42-105.51-17-34.65-51.13-31-82.88-31H413.66c-79.72,0-159.78-2.21-239.47,0-1.25,0-2.51,0-3.76,0-10.63,0-20.37,11.12-16.65,21.86L294.05,609.42,320.19,685c9.33,27,25.62,48.24,57,48.77,68.33,1.16,136.78,0,205.11,0H795.7C817.92,733.77,818,699.24,795.7,699.24Z"/><path d="M803.77,862.55c-.35,27.14-14.27,54.74-40.09,65.91-24.86,10.75-53.27,1.33-69.47-19.79-17.73-23.13-20.13-56.82-6.25-82.35,12.6-23.19,38.26-39,64.92-33,31.86,7.18,50.48,38,50.89,69.25.29,22.2,34.83,22.27,34.54,0-.56-42.9-24.59-83.54-65.44-99.22-39.3-15.09-82.5,1.06-107.1,33.81-25.48,33.92-27.75,82.06-7.64,119.07,19.87,36.56,60.58,57.27,101.7,49.35,48-9.24,77.87-56.46,78.48-103C838.6,840.31,804.06,840.3,803.77,862.55Z"/><path d="M491.3,862.55c-.36,27.14-14.28,54.74-40.09,65.91-24.87,10.75-53.28,1.33-69.48-19.79-17.73-23.13-20.12-56.82-6.25-82.35,12.6-23.19,38.26-39,64.92-33,31.86,7.18,50.49,38,50.9,69.25.29,22.2,34.83,22.27,34.54,0-.57-42.9-24.59-83.54-65.45-99.22-39.3-15.09-82.49,1.06-107.09,33.81-25.48,33.92-27.75,82.06-7.64,119.07,19.87,36.56,60.58,57.27,101.69,49.35,48-9.24,77.88-56.46,78.49-103C526.13,840.31,491.59,840.3,491.3,862.55Z"/><path d="M692.66,199.22V716.51c0,22.22,34.54,22.26,34.54,0V199.22c0-22.23-34.54-22.27-34.54,0Z"/><path d="M443.17,199.22V716.51c0,22.22,34.54,22.26,34.54,0V199.22c0-22.23-34.54-22.27-34.54,0Z"/><path d="M880.72,526.68H289.65c-22.22,0-22.26,34.53,0,34.53H880.72c22.22,0,22.26-34.53,0-34.53Z"/><path d="M940.26,354.51H230.11c-22.23,0-22.26,34.54,0,34.54H940.26c22.23,0,22.26-34.54,0-34.54Z"/><path d="M187.08,194.62,151.62,99.81c-4.73-12.65-8.61-26.57-15-38.53A54.39,54.39,0,0,0,90,32.83c-5.43-.15-10.9,0-16.34,0H16.75c-22.22,0-22.26,34.54,0,34.54H64c7.85,0,15.71,0,23.57,0,7.28,0,12.83,1.71,17.56,8.45,6.31,9,9,21.8,12.78,32l21.61,57.79,14.31,38.25c3.26,8.73,11.67,14.69,21.24,12.06,8.38-2.31,15.34-12.47,12.06-21.25Z"/></svg>