<svg id="Capa_1" data-name="Capa 1" xmlns="http://www.w3.org/2000/svg" viewBox="0 0 1000 1000"><path d="M830,126.61c-21.48-18-48.83-17.3-75.26-17.3H685.49l17.3,17.29c0-43.2-11.74-84.2-50.58-108.47-19.65-12.29-42-16.36-64.76-16.51-29.5-.19-59,0-88.49,0-29.21,0-58.43-.21-87.64,0-23,.16-45.67,4.43-65.36,17.11-38.2,24.6-49.68,64.94-49.68,107.87l17.3-17.29q-44.06,0-88.11,0c-25.58,0-48.22,4-65.35,25.06-14.74,18.14-23.55,44.31-21,67.78,3.23,30,30.14,37.45,55.58,37.45H742.31c20.27,0,40.54-.06,60.81,0,18.58.06,39.46-1.32,50.33-18.89,19.32-31.23-.1-71.63-23.42-94.08-16-15.45-40.53,9-24.46,24.46C814.8,160,822.52,169,824.91,182c1.6,8.76,4,20.42-6.42,22.7-6.08,1.33-13.07.3-19.37.3q-27,0-54.06,0H531.87c-114.89,0-230,2.24-344.9,0-4-.08-9.08.86-12.12-2.73-4.69-5.53-.12-20.13,1.68-26.08,3.18-10.5,8.94-21.35,18.42-27.41,8.56-5.47,18.06-4.89,27.75-4.88q45.44,0,90.88,0a17.54,17.54,0,0,0,17.29-17.3c0-32.89,6.78-64.36,38.35-81.39,18.43-9.94,38.24-9,58.54-9q35.6,0,71.2,0,34.56,0,69.13,0c20.14,0,40.26-1.39,58.95,7.5C660.6,59.66,668.2,92.82,668.2,126.6a17.55,17.55,0,0,0,17.29,17.3H750.6c16.37,0,41.73-3.92,55,7.17C822.53,165.28,847.12,140.93,830,126.61Z"/><path d="M816,298.52c-17-13.74-37.43-12.11-58.14-12.11H354.38q-60.33,0-120.66,0c-26.69,0-57.88,2.65-60.79,36.06a50.06,50.06,0,0,0-.11,7.84c.26,3.81.58,8.59.24,2,0,.55.12,1.1.11,1.64,0,3.07.46,6.22.68,9.27q9.41,129.22,18.73,258.44c5.84,81,12.24,162,17.19,243.12,2,33.6,0,70.78,15.73,101.59,15.41,30.12,46.83,47.27,79.65,50.58,30.54,3.08,62.64.49,93.24.49H621.51c30.65,0,67,4.34,96.5-5.23,32.21-10.44,56.33-35.87,64.29-68.82,6.7-27.69,5.81-57.13,7.65-85.41,5.64-86.44,12.17-172.83,18.41-259.23,5.81-80.53,12.51-161,17.52-241.63.1-1.6.27-3.2.35-4.81-.34,6.58,0,1.8.23-2a50.06,50.06,0,0,0-.1-7.84,39.88,39.88,0,0,0-10.39-24c-14.74-16.74-39.13,7.8-24.46,24.46,1.07,1.21.18,3.83.49,5.19.07.32-.13,4.34.06.82.24-4.31-.42,3.21-.42,3.27,0,.39,0,.77-.09,1.16-.25,2.64-.38,5.31-.58,8q-1.29,17.82-2.59,35.64-4.56,62.72-9.1,125.42-10.5,145.09-20.81,290.21c-2.56,36.46-2.32,74.12-7.35,110.21C746.87,933.3,729,956,697.65,961.75c-10.45,1.92-21.35,1.11-31.94,1.11H340.83c-9.57,0-19.2.31-28.75,0-26.73-.91-52-16.34-60.08-42.57-7.91-25.54-6.25-53.93-7.95-80.35-.78-12.22-1.64-24.45-2.49-36.67q-4.45-64.05-9.1-128.08-10.32-143.88-20.8-287.74c-1.39-19.16-2.72-38.34-4.32-57.48-.46-5.41.07-.56.08.35,0-.79-.51-2.79-.13-3.48.6-1.12-.3-2.83.65-3.92,2.49-2.85,12.19-1.83,15.52-1.87,5.78-.08,11.57,0,17.35,0H751.12c10.26,0,33.28-3.76,40.39,2C808.68,336.85,833.3,312.52,816,298.52Z"/><path d="M400.19,887.43c-16.2,0-43.9,5.54-45.84-17.39-.48-5.67,0-11.57,0-17.25V439.49c0-6.21-1-14.11,1.76-19.83,5.31-10.9,16.78-9.76,27-9.76,9.42,0,22-2.19,29.3,5.1,6.16,6.16,5.09,14.59,5.09,22.51v368.2c0,21.1,1.68,43,0,64-.79,10-7,17.14-17.29,17.69-22.15,1.2-22.29,35.8,0,34.6,29.8-1.61,50.87-23.33,51.89-53.09.3-8.72,0-17.5,0-26.23V443.93c0-6.79.38-13.72-.2-20.5-1.57-18.12-12.22-34.6-28.67-42.69-12.34-6.06-25.41-5.44-38.72-5.44-13.65,0-26.73,0-39,7.09-16.16,9.33-24.94,26.56-25.7,44.81-.25,5.95,0,12,0,17.94v399c0,8.35-.29,16.75,0,25.09,1,29.57,22.53,51.65,52.25,52.77,9.37.35,18.8,0,28.18,0C422.45,922,422.48,887.43,400.19,887.43Z"/><path d="M630.25,887.43c-16.19,0-43.89,5.54-45.83-17.39-.48-5.67,0-11.57,0-17.25V439.49c0-6.21-1-14.11,1.75-19.83,5.32-10.9,16.79-9.76,27-9.76,9.41,0,22-2.19,29.29,5.1,6.16,6.16,5.1,14.59,5.1,22.51v368.2c0,21.1,1.68,43,0,64-.79,10-7,17.14-17.3,17.69-22.14,1.2-22.28,35.8,0,34.6,29.8-1.61,50.88-23.33,51.9-53.09.29-8.72,0-17.5,0-26.23V443.93c0-6.79.38-13.72-.21-20.5-1.56-18.12-12.22-34.6-28.67-42.69-12.33-6.06-25.4-5.44-38.71-5.44-13.66,0-26.73,0-39,7.09-16.16,9.33-24.94,26.56-25.71,44.81-.25,5.95,0,12,0,17.94v399c0,8.35-.29,16.75,0,25.09,1,29.57,22.54,51.65,52.26,52.77,9.36.35,18.8,0,28.17,0C652.51,922,652.55,887.43,630.25,887.43Z"/></svg>