<svg id="svg5" xmlns="http://www.w3.org/2000/svg" xmlns:xlink="http://www.w3.org/1999/xlink" viewBox="0 0 1000 1000"><defs><style>.cls-1{fill:#e3e3e1;}.cls-2{fill:url(#linear-gradient);}.cls-3{fill:url(#linear-gradient-2);}.cls-16,.cls-4,.cls-5{fill-rule:evenodd;}.cls-4{fill:url(#linear-gradient-3);}.cls-5{fill:#ffd035;}.cls-6{fill:url(#linear-gradient-4);}.cls-7{fill:#ffea79;}.cls-8{fill:green;}.cls-22,.cls-8{opacity:0.5;}.cls-11,.cls-13,.cls-22,.cls-8{isolation:isolate;}.cls-9{fill:url(#linear-gradient-5);}.cls-10{fill:url(#linear-gradient-6);}.cls-11{fill:blue;}.cls-11,.cls-13{opacity:0.25;}.cls-12{fill:#b0f4ff;}.cls-13{fill:#2d717c;}.cls-14{fill:#fff;}.cls-15{fill:url(#linear-gradient-7);}.cls-16{fill:url(#linear-gradient-8);}.cls-17{fill:url(#linear-gradient-9);}.cls-18{fill:#e56b1a;}.cls-19{fill:url(#linear-gradient-10);}.cls-20{fill:url(#linear-gradient-11);}.cls-21{fill:url(#linear-gradient-12);}.cls-22{fill:#c15a15;}.cls-23{fill:url(#linear-gradient-13);}.cls-24{fill:url(#linear-gradient-14);}.cls-25{fill:#333;}.cls-26{fill:#2186d5;}.cls-27{fill:#e6e6e6;}.cls-28{fill:#eaeae4;}.cls-29{fill:url(#linear-gradient-15);}.cls-30{fill:url(#linear-gradient-16);}.cls-31{fill:url(#linear-gradient-17);}.cls-32{fill:url(#linear-gradient-18);}.cls-33{fill:url(#linear-gradient-19);}.cls-34{fill:url(#linear-gradient-20);}.cls-35{fill:url(#linear-gradient-21);}.cls-36{fill:url(#linear-gradient-22);}.cls-37{fill:url(#linear-gradient-23);}.cls-38{fill:url(#linear-gradient-24);}.cls-39{fill:url(#linear-gradient-25);}.cls-40{fill:url(#linear-gradient-26);}.cls-41{fill:url(#linear-gradient-27);}.cls-42{fill:url(#linear-gradient-28);}.cls-43{fill:url(#linear-gradient-29);}.cls-44{fill:url(#linear-gradient-30);}.cls-45{fill:#fbfaf4;}.cls-46{fill:url(#linear-gradient-31);}.cls-47{fill:url(#linear-gradient-32);}</style><linearGradient id="linear-gradient" x1="-324.47" y1="1000.92" x2="-324.47" y2="949.44" gradientTransform="matrix(10.39, 0, 0, -10.43, 4102.43, 10610.29)" gradientUnits="userSpaceOnUse"><stop offset="0" stop-color="#ffe048"/><stop offset="1" stop-color="#fefdfc"/></linearGradient><linearGradient id="linear-gradient-2" x1="-318.67" y1="945.1" x2="-318.65" y2="966.83" gradientTransform="matrix(10.39, 0, 0, -10.43, 4102.43, 10610.29)" gradientUnits="userSpaceOnUse"><stop offset="0" stop-color="#37b04a"/><stop offset="1" stop-color="#bcdc58"/></linearGradient><linearGradient id="linear-gradient-3" x1="71.4" y1="637.74" x2="98.9" y2="637.74" gradientTransform="matrix(2.75, 0, 0, -2.76, 596.77, 2626.95)" gradientUnits="userSpaceOnUse"><stop offset="0" stop-color="#ffb62b"/><stop offset="1" stop-color="#ffd040"/></linearGradient><linearGradient id="linear-gradient-4" x1="-370.71" y1="928.36" x2="-363.38" y2="928.36" gradientTransform="matrix(10.39, 0, -4.95, -9.17, 9259.24, 9295.79)" gradientUnits="userSpaceOnUse"><stop offset="0" stop-color="#ffd238"/><stop offset="1" stop-color="#ffec82"/></linearGradient><linearGradient id="linear-gradient-5" x1="-46.14" y1="596.87" x2="-46.14" y2="904.79" gradientTransform="matrix(2.75, 0, 0, -2.76, 596.77, 2626.95)" gradientUnits="userSpaceOnUse"><stop offset="0" stop-color="#2b6eff"/><stop offset="1" stop-color="#01c6ff"/></linearGradient><linearGradient id="linear-gradient-6" x1="52.05" y1="678.56" x2="52.05" y2="736.69" gradientTransform="matrix(2.75, 0, 0, -2.76, 596.77, 2626.95)" xlink:href="#linear-gradient-2"/><linearGradient id="linear-gradient-7" x1="-350.21" y1="939.74" x2="-350.21" y2="945.19" gradientTransform="matrix(10.39, 0, 0, -10.43, 4102.43, 10610.29)" gradientUnits="userSpaceOnUse"><stop offset="0" stop-color="#f5488b"/><stop offset="1" stop-color="#ff7c45"/></linearGradient><linearGradient id="linear-gradient-8" x1="-86.63" y1="639.49" x2="-197.27" y2="639.49" gradientTransform="matrix(2.75, 0, 0, -2.76, 596.77, 2626.95)" gradientUnits="userSpaceOnUse"><stop offset="0" stop-color="#f6800a"/><stop offset="1" stop-color="#ffae1f"/></linearGradient><linearGradient id="linear-gradient-9" x1="-375.12" y1="940.67" x2="-375.12" y2="946.05" gradientTransform="matrix(10.39, 0, 0, -10.43, 4102.43, 10610.29)" gradientUnits="userSpaceOnUse"><stop offset="0" stop-color="#ec7405"/><stop offset="1" stop-color="#ffae1f"/></linearGradient><linearGradient id="linear-gradient-10" x1="-141.96" y1="661.82" x2="-141.96" y2="706.19" gradientTransform="matrix(2.75, 0, 0, -2.76, 596.77, 2626.95)" gradientUnits="userSpaceOnUse"><stop offset="0" stop-color="#c9edff"/><stop offset="1" stop-color="#91d7ff"/></linearGradient><linearGradient id="linear-gradient-11" x1="-177.54" y1="730.19" x2="-157.84" y2="696.08" gradientTransform="matrix(2.75, 0, 0, -2.76, 596.77, 2626.95)" gradientUnits="userSpaceOnUse"><stop offset="0" stop-color="#caeeff"/><stop offset="1" stop-color="#72cbff"/></linearGradient><linearGradient id="linear-gradient-12" x1="-175.56" y1="727.23" x2="-159.12" y2="698.75" gradientTransform="matrix(2.75, 0, 0, -2.76, 596.77, 2626.95)" gradientUnits="userSpaceOnUse"><stop offset="0" stop-color="#95c8ee"/><stop offset="1" stop-color="#4cbdff"/></linearGradient><linearGradient id="linear-gradient-13" x1="-382.69" y1="937.61" x2="-382.69" y2="941.98" gradientTransform="matrix(10.39, 0, 0, -10.43, 4102.43, 10610.29)" xlink:href="#linear-gradient-10"/><linearGradient id="linear-gradient-14" x1="-504.66" y1="649.48" x2="-504.66" y2="666.77" gradientTransform="translate(-1101.36 2626.95) rotate(180) scale(2.75 2.76)" xlink:href="#linear-gradient-10"/><linearGradient id="linear-gradient-15" x1="-345.25" y1="1010.23" x2="-345.25" y2="1012.14" gradientTransform="matrix(10.39, 0, 0, -10.43, 4102.43, 10610.29)" gradientUnits="userSpaceOnUse"><stop offset="0" stop-color="#b3b3b3"/><stop offset="1" stop-color="#ccc"/></linearGradient><linearGradient id="linear-gradient-16" x1="-345.25" y1="1006.49" x2="-345.25" y2="1008.41" xlink:href="#linear-gradient-15"/><linearGradient id="linear-gradient-17" x1="-80.52" y1="904.29" x2="-80.52" y2="938.04" gradientTransform="matrix(2.75, 0, 0, -2.76, 596.77, 2626.95)" xlink:href="#linear-gradient-15"/><linearGradient id="linear-gradient-18" x1="-47.83" y1="729.86" x2="-47.83" y2="788.24" gradientTransform="matrix(2.75, 0, 0, -2.76, 596.77, 2626.95)" gradientUnits="userSpaceOnUse"><stop offset="0" stop-color="#ffcf3a"/><stop offset="1" stop-color="#ffdf51"/></linearGradient><linearGradient id="linear-gradient-19" x1="-47.83" y1="777.93" x2="-47.83" y2="788.24" gradientTransform="matrix(2.75, 0, 0, -2.76, 596.77, 2626.95)" gradientUnits="userSpaceOnUse"><stop offset="0" stop-color="#febd34"/><stop offset="1" stop-color="#ffd040"/></linearGradient><linearGradient id="linear-gradient-20" x1="-341.2" y1="954.24" x2="-359.22" y2="954.24" gradientTransform="matrix(10.39, 0, 0, -10.43, 4102.43, 10610.29)" gradientUnits="userSpaceOnUse"><stop offset="0" stop-color="#ccc"/><stop offset="1" stop-color="#e4e4e4"/></linearGradient><linearGradient id="linear-gradient-21" x1="-444.53" y1="950.59" x2="-432.68" y2="950.59" gradientTransform="translate(-4089.75 10610.29) rotate(180) scale(10.39 10.43)" xlink:href="#linear-gradient-20"/><linearGradient id="linear-gradient-22" x1="-350.21" y1="932.06" x2="-350.21" y2="925.77" gradientTransform="matrix(10.39, 0, 0, -10.43, 4102.43, 10610.29)" gradientUnits="userSpaceOnUse"><stop offset="0" stop-color="#1f57bb"/><stop offset="1" stop-color="#2562d4"/></linearGradient><linearGradient id="linear-gradient-23" x1="-382.75" y1="967.24" x2="-382.68" y2="975.29" xlink:href="#linear-gradient-15"/><linearGradient id="linear-gradient-24" x1="-48.02" y1="817.82" x2="-48.02" y2="883.74" gradientTransform="matrix(2.75, 0, 0, -2.76, 596.77, 2626.95)" gradientUnits="userSpaceOnUse"><stop offset="0" stop-color="#ccc"/><stop offset="1" stop-color="#fff"/></linearGradient><linearGradient id="linear-gradient-25" x1="-358.5" y1="981.95" x2="-358.5" y2="999.39" xlink:href="#linear-gradient-7"/><linearGradient id="linear-gradient-26" x1="-374.97" y1="981.95" x2="-374.97" y2="999.39" xlink:href="#linear-gradient-7"/><linearGradient id="linear-gradient-27" x1="-358.5" y1="981.95" x2="-358.5" y2="999.39" gradientTransform="matrix(10.39, 0, 0, -10.43, 4273.48, 10610.29)" xlink:href="#linear-gradient-7"/><linearGradient id="linear-gradient-28" x1="-48.02" y1="817.82" x2="-48.02" y2="883.74" gradientTransform="matrix(2.75, 0, 0, -2.76, 767.82, 2626.95)" xlink:href="#linear-gradient-24"/><linearGradient id="linear-gradient-29" x1="-48.02" y1="817.82" x2="-48.02" y2="883.74" gradientTransform="matrix(2.75, 0, 0, -2.76, 425.72, 2626.95)" xlink:href="#linear-gradient-24"/><linearGradient id="linear-gradient-30" x1="-463.36" y1="981.95" x2="-463.36" y2="999.39" gradientTransform="translate(-4090.78 10610.29) rotate(180) scale(10.39 10.43)" xlink:href="#linear-gradient-7"/><linearGradient id="linear-gradient-31" x1="-511.62" y1="730.19" x2="-491.93" y2="696.08" gradientTransform="translate(-1101.35 2626.95) rotate(180) scale(2.75 2.76)" xlink:href="#linear-gradient-11"/><linearGradient id="linear-gradient-32" x1="-509.64" y1="727.23" x2="-493.2" y2="698.75" gradientTransform="translate(-1101.35 2626.95) rotate(180) scale(2.75 2.76)" xlink:href="#linear-gradient-12"/></defs><g id="layer1"><path id="rect4181" class="cls-1" d="M57.64,400.55H248.15a11,11,0,0,1,11,11V550.23a11,11,0,0,1-11,11H57.64a11,11,0,0,1-11-11V411.59A11,11,0,0,1,57.64,400.55Z" transform="translate(0 0)"/><ellipse id="path4077" class="cls-2" cx="732.67" cy="441.11" rx="267.33" ry="268.43"/><path id="path3893" class="cls-3" d="M793.13,528.15a266.73,266.73,0,0,0-57.68,226.62h115a267.61,267.61,0,0,0-57.33-226.62Z" transform="translate(0 0)"/><path id="rect901" class="cls-4" d="M793,754.77V969.9a10.2,10.2,0,0,1-10.21,10.24h75.57a10.2,10.2,0,0,0,10.2-10.24V754.77Z" transform="translate(0 0)"/><path id="path2414" class="cls-5" d="M644.07,754.77V980.14H782.75A10.2,10.2,0,0,0,793,969.9V754.77Z" transform="translate(0 0)"/><polygon id="rect2630" class="cls-6" points="792.96 754.77 869.04 754.77 904.01 819.48 827.93 819.48 792.96 754.77"/><path id="rect2731" class="cls-7" d="M793,754.77H644.07v64.71H758Z" transform="translate(0 0)"/><path id="path128509" class="cls-8" d="M739.94,594.37v160.4h54.58a160,160,0,0,0,4.72-38.09C799.23,671.92,774.46,628.6,739.94,594.37Z" transform="translate(0 0)"/><path id="rect4394" class="cls-9" d="M269.14,130.57a39.45,39.45,0,0,0-39.46,39.62V940.53a39.45,39.45,0,0,0,39.46,39.61H660.51A39.45,39.45,0,0,0,700,940.53V615.92a10.31,10.31,0,0,0,10.3-10.35V535.91A10.3,10.3,0,0,0,700,525.56V493.83a10.3,10.3,0,0,0,10.3-10.35V413.82A10.31,10.31,0,0,0,700,403.47V170.19a39.45,39.45,0,0,0-39.46-39.62Z" transform="translate(0 0)"/><path id="circle3782" class="cls-10" d="M739.92,594.37a188.84,188.84,0,0,0-40.83,160.4h81.4a189.37,189.37,0,0,0-40.57-160.4Z" transform="translate(0 0)"/><path id="path355880" class="cls-11" d="M259.14,860.38A11.87,11.87,0,0,0,271,872.3H658.64a11.87,11.87,0,0,0,11.87-11.92V843.79H259.14Z" transform="translate(0 0)"/><path id="rect10313" class="cls-12" d="M271,313.59H658.63a11.91,11.91,0,0,1,11.88,11.93V855.89a11.91,11.91,0,0,1-11.88,11.93H271a11.91,11.91,0,0,1-11.88-11.93V325.52A11.91,11.91,0,0,1,271,313.59Z" transform="translate(0 0)"/><path id="rect11360-1" class="cls-13" d="M285.58,814v12.57A17.35,17.35,0,0,0,302.94,844H626.71a17.36,17.36,0,0,0,17.36-17.42V814Z" transform="translate(0 0)"/><path id="rect11360" class="cls-14" d="M302.94,313.59H626.71A17.39,17.39,0,0,1,644.07,331v491a17.39,17.39,0,0,1-17.36,17.42H302.94a17.39,17.39,0,0,1-17.36-17.42V331A17.39,17.39,0,0,1,302.94,313.59Z" transform="translate(0 0)"/><path id="rect11112" class="cls-15" d="M326.05,753.87H604.63a10,10,0,0,1,10,10V800.7a10,10,0,0,1-10,10H326.05a10,10,0,0,1-10-10V763.86A10,10,0,0,1,326.05,753.87Z" transform="translate(0 0)"/><path id="rect538" class="cls-16" d="M117.87,745,90.4,768.13,55,957.39h0l0,.23,0,0A19.14,19.14,0,0,0,70.1,979.83l2.66.33H340.64l2.67-.33a19.14,19.14,0,0,0,15.11-22.19h0l0-.21v0h0L323,768.13,295.54,745Z" transform="translate(0 0)"/><path id="rect1126" class="cls-17" d="M117.87,745H295.53a28,28,0,0,1,0,56H117.87a28,28,0,0,1,0-56Z" transform="translate(0 0)"/><ellipse id="path4293" class="cls-18" cx="146.84" cy="857.04" rx="8.5" ry="8.54"/><ellipse id="circle4395" class="cls-18" cx="266.58" cy="857.04" rx="8.5" ry="8.54"/><path id="path4938" class="cls-19" d="M206.7,678.52c-47.77,0-86.5,38.89-86.5,86.86A86.89,86.89,0,0,0,128,800.94H285.39a87.2,87.2,0,0,0,7.82-35.56C293.21,717.41,254.48,678.52,206.7,678.52Z" transform="translate(0 0)"/><g id="g7286"><path id="path4995" class="cls-20" d="M120.23,609.26a22.65,22.65,0,0,0-19.56,34l42.77,63.15a86.51,86.51,0,0,1,28-20.11L139.79,620.6A22.56,22.56,0,0,0,120.23,609.26Z" transform="translate(0 0)"/><path id="path5656" class="cls-21" d="M120.67,618.79a12.63,12.63,0,0,0-10.91,19l41.51,61.29a86.25,86.25,0,0,1,11.86-8.41l-31.55-65.53a12.59,12.59,0,0,0-10.91-6.32Z" transform="translate(0 0)"/></g><path id="path12344" class="cls-22" d="M104.72,822.21v8.54a12.74,12.74,0,0,0,12.74,12.79h21.25a12.74,12.74,0,0,0,12.73-12.79v-8.54Z" transform="translate(0 0)"/><path id="path12155" class="cls-23" d="M128.08,787.3a23.41,23.41,0,0,0-23.36,23.45v11.46A12.73,12.73,0,0,0,117.46,835h21.25a12.73,12.73,0,0,0,12.73-12.79V810.75A23.41,23.41,0,0,0,128.08,787.3Z" transform="translate(0 0)"/><g id="g13605"><path id="path13601" class="cls-22" d="M308.69,822.21v8.54A12.74,12.74,0,0,1,296,843.54H274.71A12.73,12.73,0,0,1,262,830.75v-8.54Z" transform="translate(0 0)"/><path id="path13603" class="cls-24" d="M285.33,787.3a23.41,23.41,0,0,1,23.36,23.45v11.46A12.73,12.73,0,0,1,296,835H274.71A12.72,12.72,0,0,1,262,822.21V810.75A23.4,23.4,0,0,1,285.33,787.3Z" transform="translate(0 0)"/></g><g id="g13825"><ellipse id="path7541" class="cls-14" cx="174.76" cy="759.42" rx="14.41" ry="14.47"/><ellipse id="circle7743" class="cls-25" cx="174.76" cy="759.42" rx="5.14" ry="5.16"/><path id="rect7437" class="cls-26" d="M160.33,745h28.86a4.47,4.47,0,0,1,4.46,4.48v.35a4.47,4.47,0,0,1-4.46,4.48H160.33a4.47,4.47,0,0,1-4.46-4.48v-.35A4.47,4.47,0,0,1,160.33,745Z" transform="translate(0 0)"/></g><g id="g13892"><ellipse id="circle13886" class="cls-14" cx="238.65" cy="759.42" rx="14.41" ry="14.47"/><ellipse id="circle13888" class="cls-25" cx="238.65" cy="759.42" rx="5.14" ry="5.16"/><path id="rect13890" class="cls-26" d="M253.08,745H224.23a4.48,4.48,0,0,0-4.47,4.48v.35a4.48,4.48,0,0,0,4.47,4.48h28.85a4.47,4.47,0,0,0,4.46-4.48v-.35A4.47,4.47,0,0,0,253.08,745Z" transform="translate(0 0)"/></g><ellipse id="path14014" class="cls-26" cx="206.71" cy="778.29" rx="9.61" ry="9.65"/><rect id="rect5478" class="cls-27" y="980.14" width="929.65" height="19.86"/><path id="rect6264" class="cls-28" d="M310.43,0a17.17,17.17,0,0,0-17.17,17.24V151.75A17.17,17.17,0,0,0,310.43,169h38.82v19.66h22V169H558.42v19.66h22V169h38.82a17.17,17.17,0,0,0,17.17-17.24V17.24A17.17,17.17,0,0,0,619.22,0H310.43Z" transform="translate(0 0)"/><path id="rect6840" class="cls-29" d="M457.34,55.68h119a10,10,0,0,1,10,10h0a10,10,0,0,1-10,10h-119a10,10,0,0,1-10-10h0A10,10,0,0,1,457.34,55.68Z" transform="translate(0 0)"/><path id="rect7004" class="cls-30" d="M457.34,94.65h119a10,10,0,0,1,10,10h0a10,10,0,0,1-10,10h-119a10,10,0,0,1-10-10h0A10,10,0,0,1,457.34,94.65Z" transform="translate(0 0)"/><path id="path7061" class="cls-31" d="M370.72,38.82A27.4,27.4,0,0,0,357.24,90v0l.08,0a26.85,26.85,0,0,0,13.41,3.61h9.62a10.87,10.87,0,0,1,0,21.73H352.16a8.28,8.28,0,0,0,0,16.56h28.18a27.41,27.41,0,0,0,13.48-51.21h0l-.07,0a26.91,26.91,0,0,0-13.42-3.61h-9.62a10.87,10.87,0,0,1,0-21.73h28.18a8.28,8.28,0,0,0,0-16.56Z" transform="translate(0 0)"/><path id="rect10417" class="cls-32" d="M373,452.14a11,11,0,0,0-11,11V498a11,11,0,0,0,11,11H393.9a11,11,0,0,1,11,11v82.09a11,11,0,0,0,11,11H514.8a11,11,0,0,0,11-11V520.08a11,11,0,0,1,11-11h21a11,11,0,0,0,11-11V463.18a11,11,0,0,0-11-11Z" transform="translate(0 0)"/><path id="path10545" class="cls-33" d="M437,452.14a28.4,28.4,0,0,0,28.34,28.46h0a28.4,28.4,0,0,0,28.34-28.46H437Z" transform="translate(0 0)"/><path id="rect11006" class="cls-34" d="M381.71,649.3H549a10,10,0,0,1,10,10v.44a10,10,0,0,1-10,10H381.71a10,10,0,0,1-10-10v-.44A10,10,0,0,1,381.71,649.3Z" transform="translate(0 0)"/><path id="rect11088" class="cls-35" d="M516.91,687.34H413.77a10,10,0,0,0-10,10v.44a10,10,0,0,0,10,10H516.91a10,10,0,0,0,10-10v-.44A10,10,0,0,0,516.91,687.34Z" transform="translate(0 0)"/><ellipse id="path11234" class="cls-36" cx="465.34" cy="923.6" rx="32.63" ry="32.76"/><path id="rect4285" class="cls-37" d="M97,440h61.57a11,11,0,0,1,11,11v61.82a11,11,0,0,1-11,11H97a11,11,0,0,1-11-11V451.05A11,11,0,0,1,97,440Z" transform="translate(0 0)"/><path id="rect4287" class="cls-1" d="M127.76,458.06a4.62,4.62,0,0,0-4.62,4.63v14.15H109.05a4.63,4.63,0,0,0,0,9.26h14.09v14.15a4.62,4.62,0,1,0,9.23,0V486.1h14.09a4.63,4.63,0,0,0,0-9.26H132.37V462.69a4.62,4.62,0,0,0-4.61-4.63Z" transform="translate(0 0)"/><path id="rect6470" class="cls-38" d="M422.06,188.65v139a42.85,42.85,0,0,0,42.77,42.94h0a42.85,42.85,0,0,0,42.76-42.94h0v-139Z" transform="translate(0 0)"/><path id="path6577" class="cls-39" d="M336.54,188.65v139a42.84,42.84,0,0,0,42.76,42.94h0a42.84,42.84,0,0,0,42.76-42.94h0v-139Z" transform="translate(0 0)"/><path id="path6663" class="cls-40" d="M196.57,214.5c-10.25,13-26.23,38.71-31.08,65.05V327.6a42.76,42.76,0,1,0,85.52,0v-139s-24,3.87-33.14,8.5-11,4.31-21.3,17.35Z" transform="translate(0 0)"/><path id="path23928" class="cls-41" d="M507.59,188.65v139a42.84,42.84,0,0,0,42.76,42.94h0a42.84,42.84,0,0,0,42.76-42.94h0v-139Z" transform="translate(0 0)"/><path id="path270" class="cls-42" d="M593.11,188.65v139a42.77,42.77,0,1,0,85.53,0v-139Z" transform="translate(0 0)"/><path id="path354" class="cls-43" d="M251,188.65v139a42.77,42.77,0,1,0,85.53,0v-139Z" transform="translate(0 0)"/><path id="path5450" class="cls-44" d="M733.08,214.5c10.25,13,26.23,38.71,31.08,65.05V327.6a42.76,42.76,0,1,1-85.52,0v-139s24,3.87,33.14,8.5,11,4.31,21.3,17.35Z" transform="translate(0 0)"/><path id="path167718" class="cls-22" d="M146.85,862.55a5,5,0,0,0-5,5v16a64.82,64.82,0,1,0,129.64,0v-16a5,5,0,1,0-9.9,0v16h0a54.92,54.92,0,1,1-109.83,0v-16A5,5,0,0,0,146.85,862.55Z" transform="translate(0 0)"/><path id="path2625" class="cls-45" d="M146.85,857a5,5,0,0,0-5,5v16a64.82,64.82,0,1,0,129.64,0V862a5,5,0,1,0-9.9,0v16h0a54.92,54.92,0,1,1-109.83,0V862a5,5,0,0,0-5-5Z" transform="translate(0 0)"/><g id="g328705"><path id="path328701" class="cls-46" d="M293.2,609.26a22.66,22.66,0,0,1,19.56,34L270,706.43a86.58,86.58,0,0,0-28-20.11l31.63-65.72A22.58,22.58,0,0,1,293.2,609.26Z" transform="translate(0 0)"/><path id="path328703" class="cls-47" d="M292.75,618.79a12.63,12.63,0,0,1,10.91,19l-41.51,61.29a86.15,86.15,0,0,0-11.85-8.41l31.54-65.53a12.59,12.59,0,0,1,10.91-6.32Z" transform="translate(0 0)"/></g></g></svg>