<svg xmlns="http://www.w3.org/2000/svg" viewBox="0 0 1000 736.54"><defs><style>.cls-1{fill:#f5f5f5;}.cls-2{fill:#e0e0e0;}.cls-3{fill:none;stroke:#fff;stroke-miterlimit:10;}.cls-4{opacity:0.2;}.cls-5{fill:#e8505b;}.cls-6{fill:#263238;}.cls-7{fill:#455a64;}.cls-8{fill:#b78876;}.cls-9{fill:#a36957;}.cls-10{opacity:0.3;}.cls-11{fill:#fafafa;}.cls-12{opacity:0.5;}.cls-13{fill:#fff;}</style></defs><g id="Background_Complete" data-name="Background Complete"><rect class="cls-1" x="108.39" y="237.76" width="224.41" height="330.43" transform="translate(-186.8 190.66) rotate(-33.78)"/><polygon class="cls-2" points="309.35 464.9 307.23 478 214.5 464.64 216.62 451.54 309.35 464.9"/><polygon class="cls-2" points="262.65 418.17 275.95 420.08 261.2 511.38 247.9 509.46 262.65 418.17"/><path class="cls-3" d="M236.28,307.53"/><path class="cls-2" d="M177.24,302.13c.13.2-18.56,12.93-41.75,28.44S93.4,358.5,93.26,358.3s18.56-12.93,41.75-28.45S177.11,301.93,177.24,302.13Z"/><path class="cls-2" d="M245.84,284.91c.13.2-31,21.22-69.42,46.95s-69.78,46.44-69.91,46.24,30.94-21.22,69.42-47S245.7,284.71,245.84,284.91Z"/><path class="cls-2" d="M259.59,305.47c.13.2-31,21.22-69.42,46.95s-69.78,46.44-69.91,46.24,30.94-21.22,69.42-47S259.45,305.27,259.59,305.47Z"/><path class="cls-2" d="M273.34,326c.13.2-31,21.23-69.42,47S134.14,419.41,134,419.21,165,398,203.43,372.26,273.2,325.83,273.34,326Z"/><path class="cls-2" d="M287.09,346.58c.13.2-31,21.23-69.42,47S147.89,440,147.76,439.77s30.94-21.22,69.42-46.95S287,346.38,287.09,346.58Z"/><rect class="cls-1" x="750.3" y="416.31" width="188.46" height="277.5" transform="translate(-166.04 563.22) rotate(-33.78)"/><polygon class="cls-2" points="919.07 607.07 917.29 618.07 839.42 606.85 841.2 595.85 919.07 607.07"/><polygon class="cls-2" points="879.85 567.82 891.03 569.43 878.64 646.1 867.46 644.49 879.85 567.82"/><path class="cls-3" d="M857.71,474.9"/><path class="cls-2" d="M808.12,470.37c.14.2-15.54,10.92-35,23.94s-35.37,23.43-35.5,23.23,15.54-10.92,35-23.95S808,470.17,808.12,470.37Z"/><path class="cls-2" d="M865.73,455.91c.14.19-26,17.88-58.26,39.49s-58.61,39-58.75,38.77,25.95-17.88,58.27-39.49S865.6,455.71,865.73,455.91Z"/><path class="cls-2" d="M877.28,473.17c.13.2-25.95,17.88-58.26,39.49s-58.62,39-58.75,38.77,26-17.87,58.27-39.49S877.15,473,877.28,473.17Z"/><path class="cls-2" d="M888.83,490.44c.13.19-26,17.88-58.26,39.48s-58.62,39-58.75,38.78,25.95-17.88,58.27-39.49S888.7,490.24,888.83,490.44Z"/><path class="cls-2" d="M900.38,507.7c.13.2-26,17.88-58.27,39.49s-58.61,39-58.74,38.77,26-17.87,58.26-39.49S900.24,507.5,900.38,507.7Z"/><rect class="cls-1" x="348.21" y="150.76" width="193.83" height="285.41" transform="translate(191.01 -175.24) rotate(28.14)"/><polygon class="cls-2" points="434.03 386.28 423.18 390 395.66 313.9 406.5 310.19 434.03 386.28"/><polygon class="cls-2" points="450.65 331.69 454.6 342.61 379.03 368.49 375.08 357.57 450.65 331.69"/><path class="cls-3" d="M524.24,266.61"/><path class="cls-2" d="M504.35,219.42c-.13.25-17.47-8.76-38.72-20.12s-38.37-20.78-38.23-21,17.46,8.76,38.72,20.12S504.48,219.17,504.35,219.42Z"/><path class="cls-2" d="M545.37,264.69c-.14.26-28.83-14.83-64.08-33.68s-63.73-34.35-63.6-34.6,28.82,14.83,64.09,33.69S545.5,264.44,545.37,264.69Z"/><path class="cls-2" d="M535.29,283.53c-.13.25-28.82-14.83-64.07-33.68s-63.73-34.35-63.6-34.6,28.82,14.83,64.08,33.69S535.42,283.28,535.29,283.53Z"/><path class="cls-2" d="M525.22,302.37c-.14.25-28.83-14.83-64.08-33.69s-63.73-34.34-63.6-34.59,28.82,14.83,64.09,33.69S525.35,302.12,525.22,302.37Z"/><path class="cls-2" d="M515.14,321.21c-.13.25-28.82-14.84-64.07-33.69s-63.73-34.34-63.6-34.59,28.82,14.83,64.08,33.69S515.27,321,515.14,321.21Z"/><rect class="cls-4" x="511.74" width="4.29" height="73.12"/></g><g id="Lamp"><path class="cls-5" d="M413.76,161.56H614S595.53,73.07,512.37,73.07C438.41,73.07,413.76,161.56,413.76,161.56Z"/><rect class="cls-5" x="511.74" width="4.29" height="73.12"/></g><g id="Floor"><path class="cls-6" d="M959.74,731.16c0,.24-214.86.43-479.84.43S0,731.4,0,731.16s214.82-.43,479.9-.43S959.74,730.92,959.74,731.16Z"/></g><g id="Plant"><path class="cls-5" d="M53.12,627.05c5.62.2,10.89,3.25,14.6,7.48s6,9.55,7.43,15C78,660,76.24,672.43,73.24,682.89c-11.38-4.07-18.4-16.21-21.57-22.59-5-10.08-8-31.35,1.45-33.25"/><path class="cls-5" d="M89.62,695.63c-3.6-5.16-3.68-12.33-.84-17.93a23.7,23.7,0,0,1,14.3-11.49c2.77-.86,6-1.21,8.41.4a7.63,7.63,0,0,1,2.94,7.17,15.48,15.48,0,0,1-3.27,7.35c-5.53,7.49-12.26,13.73-21.54,14.5"/><path class="cls-6" d="M90.87,730.75a11.8,11.8,0,0,1-.51-2.18c-.31-1.56-.7-3.57-1.17-6-.9-5-2.32-12.2-1.25-20.12s4.18-14.62,7.47-18.65a25.6,25.6,0,0,1,4.32-4.36,14.78,14.78,0,0,1,1.35-1c.32-.21.49-.3.51-.28a40.18,40.18,0,0,0-5.74,6,39.61,39.61,0,0,0-7.12,18.41c-1.07,7.76.25,14.86,1,19.92.4,2.55.73,4.61.92,6A12.24,12.24,0,0,1,90.87,730.75Z"/><path class="cls-6" d="M56.79,643.05a5.47,5.47,0,0,1,.46.86l1.17,2.54c1,2.2,2.42,5.41,4.13,9.39,3.43,8,8,19,12.8,31.36S84.21,710.8,87,719c1.42,4.1,2.54,7.42,3.28,9.73l.85,2.66a5.24,5.24,0,0,1,.24,1,4.15,4.15,0,0,1-.39-.9c-.26-.67-.58-1.54-1-2.61l-3.51-9.64c-3-8.14-7.13-19.36-11.91-31.69S65.33,664.07,62,656.06c-1.62-3.94-2.95-7.16-3.9-9.49l-1-2.59A4.06,4.06,0,0,1,56.79,643.05Z"/><path class="cls-5" d="M77.36,707.51a41.81,41.81,0,0,0-32.45-20.16c-3.37-.24-7.41.32-8.91,3.34s.5,6.61,2.79,9.09a35.74,35.74,0,0,0,38.69,8.64"/><path class="cls-6" d="M50,696.36a9.93,9.93,0,0,1,2.11.07,20.94,20.94,0,0,1,2.45.29c.95.18,2,.28,3.23.61a35.68,35.68,0,0,1,3.83,1.06A42,42,0,0,1,65.93,700a46.55,46.55,0,0,1,9,5.33,46.06,46.06,0,0,1,7.45,7.37A41.49,41.49,0,0,1,85,716.47a34,34,0,0,1,2,3.47,29.33,29.33,0,0,1,1.34,3,17.7,17.7,0,0,1,.83,2.33,10.18,10.18,0,0,1,.55,2c-.17.06-1-2.85-3.22-7.1a36.19,36.19,0,0,0-2-3.38,43.06,43.06,0,0,0-2.64-3.65A47.52,47.52,0,0,0,74.45,706a48.18,48.18,0,0,0-8.82-5.3A43.93,43.93,0,0,0,61.44,699a38.65,38.65,0,0,0-3.75-1.14C53,696.69,50,696.53,50,696.36Z"/></g><g id="Character"><path class="cls-6" d="M804.64,175.34c-4.89,1.13-7.27,6.75-7.73,11.74s.17,10.27-1.93,14.83c-2.36,5.13-8,8.91-8.19,14.55-.11,3.44,1.93,6.68,1.83,10.12-.16,5.65-5.92,9.92-6.22,15.56-.22,4.07,2.49,8,1.84,12-.51,3.12-2.94,5.59-4,8.58-2.06,6,2.05,12.55,7.39,15.91A24.24,24.24,0,0,0,823,267.34c3-7.18,2.32-15.27,1.67-23q-3-36.18-4.46-72.45"/><path class="cls-7" d="M790.45,260.43a5.86,5.86,0,0,0,2.23-2.65,9.49,9.49,0,0,0,.57-4.06,22.73,22.73,0,0,0-1.21-5.38,15.25,15.25,0,0,1-.87-6.82c.42-2.59,2.27-4.71,4-6.8a15.34,15.34,0,0,0,2.24-3.41,5.5,5.5,0,0,0,.26-4c-.85-2.72-3.52-4.71-4.74-7.85a8.48,8.48,0,0,1-.26-4.85,19.27,19.27,0,0,1,1.6-4.35c1.3-2.71,2.73-5.19,3.3-7.82,1.17-5.28.63-10.31,1.42-14.44a16,16,0,0,1,4.2-8.86,9.5,9.5,0,0,1,2.2-1.57,4.79,4.79,0,0,1,.88-.33,13.71,13.71,0,0,0-2.84,2.14,16.2,16.2,0,0,0-3.84,8.72,54.19,54.19,0,0,0-.46,6.72,41.22,41.22,0,0,1-.78,7.8c-.58,2.77-2,5.35-3.31,8s-2.4,5.68-1.3,8.54,3.74,4.84,4.74,7.9a6.36,6.36,0,0,1-.31,4.57,15.71,15.71,0,0,1-2.38,3.58c-1.74,2.1-3.48,4.1-3.88,6.43a15.1,15.1,0,0,0,.75,6.52,22,22,0,0,1,1.11,5.53,9.51,9.51,0,0,1-.74,4.21,5,5,0,0,1-1.71,2.1A2.68,2.68,0,0,1,790.45,260.43Z"/><path class="cls-8" d="M777.36,299.84l-15,43.26-62.58,3.35-10.43,23.22,65.33,6.61a24.69,24.69,0,0,0,32.67-14.49l17.43-48.66Z"/><path class="cls-8" d="M906.79,707.67S860.93,562,860,557.29c-.88-4.28,16.64-109.09,18.85-136.22l-62,2.31v.45l-26.34,1.46,23.59,297.89h28.52l-2.83-98.83c17.58,47.2,42.78,95.31,42.78,95.31Z"/><path class="cls-9" d="M840.94,659.77c0-.9-.34-33.11-.34-33.11-.36,1.92-10.93-28-10.68-29.79C830.06,595.93,840.94,659.77,840.94,659.77Z"/><path class="cls-9" d="M828.72,582.72a6.48,6.48,0,0,0-.19,1.81,48.9,48.9,0,0,0,0,4.93c0,1,.15,2.19.29,3.41s.32,2.53.6,3.88a68.07,68.07,0,0,0,2.33,8.68c2.07,6,4.36,11.29,6,15.12q1.15,2.61,2,4.5a6.93,6.93,0,0,0,.85,1.61,6.67,6.67,0,0,0-.5-1.75c-.39-1.09-1-2.67-1.71-4.61-1.46-3.89-3.65-9.2-5.7-15.17a73.3,73.3,0,0,1-2.37-8.55c-.3-1.33-.5-2.61-.69-3.81s-.31-2.32-.39-3.36c-.2-2-.29-3.73-.34-4.89A6.84,6.84,0,0,0,828.72,582.72Z"/><path class="cls-7" d="M813.56,724.65V722l29.2-1.27.08,11-1.8.12c-8,.47-40.79,1.83-46.16.22C788.89,730.28,813.56,724.65,813.56,724.65Z"/><path class="cls-6" d="M843.24,731.07a1.65,1.65,0,0,1-.5.06l-1.43.09-5.28.25c-4.46.17-10.63.34-17.44.37s-13-.08-17.44-.22l-5.28-.2-1.44-.08a2.8,2.8,0,0,1-.5-.05,2.73,2.73,0,0,1,.5,0h1.44l5.28.09c4.47.08,10.63.14,17.44.12s13-.16,17.43-.27l5.28-.14,1.44,0A3.8,3.8,0,0,1,843.24,731.07Z"/><path class="cls-6" d="M804.1,732a12.21,12.21,0,0,0-1-2.52,11.78,11.78,0,0,0-1.81-2A4.7,4.7,0,0,1,804.1,732Z"/><path class="cls-6" d="M812.65,727.63c-.08.06-.49-.44-.92-1.11s-.7-1.25-.62-1.3.49.45.92,1.11S812.74,727.58,812.65,727.63Z"/><path class="cls-6" d="M815,726.38c-.06.07-.52-.23-1-.68s-.86-.87-.8-.94.53.23,1,.68S815.07,726.31,815,726.38Z"/><path class="cls-6" d="M816.48,723.63a3.33,3.33,0,0,1-1.51.2,3.53,3.53,0,0,1-1.53-.15,3.36,3.36,0,0,1,1.52-.2A3.62,3.62,0,0,1,816.48,723.63Z"/><path class="cls-6" d="M817,721.7a3,3,0,0,1-1.69.5,2.92,2.92,0,0,1-1.74-.23,9.25,9.25,0,0,1,1.72-.13A8.63,8.63,0,0,1,817,721.7Z"/><path class="cls-6" d="M811.66,725.1a5.42,5.42,0,0,1-1.87,0,11.43,11.43,0,0,1-2-.43,5.87,5.87,0,0,1-1.14-.47,1,1,0,0,1-.46-.58.72.72,0,0,1,.28-.74,3.44,3.44,0,0,1,4.85,2.23c.08.32.07.5,0,.5a5.12,5.12,0,0,0-.86-1.59,3.29,3.29,0,0,0-1.59-1,2.93,2.93,0,0,0-2.23.16c-.29.22-.18.57.15.76a5.73,5.73,0,0,0,1,.45,13.34,13.34,0,0,0,1.93.49C811,725.05,811.66,725.05,811.66,725.1Z"/><path class="cls-6" d="M811.18,725.2a1.8,1.8,0,0,1-.22-1.3,3,3,0,0,1,.5-1.36,1.87,1.87,0,0,1,1.55-1,.73.73,0,0,1,.58.86,2,2,0,0,1-.31.83,5.86,5.86,0,0,1-.88,1.14,2.79,2.79,0,0,1-1.07.76s.37-.34.89-.93a6.71,6.71,0,0,0,.77-1.13c.26-.39.43-1.1,0-1.19s-.94.43-1.22.8a3,3,0,0,0-.53,1.22A6.27,6.27,0,0,0,811.18,725.2Z"/><path class="cls-6" d="M842.62,723.13c0,.06-.83-.08-2.15.08a9.12,9.12,0,0,0-7.58,6.09c-.44,1.25-.48,2.09-.55,2.08a1.79,1.79,0,0,1,0-.59,7.27,7.27,0,0,1,.31-1.56,8.83,8.83,0,0,1,7.8-6.27,7.15,7.15,0,0,1,1.6,0C842.42,723.05,842.62,723.1,842.62,723.13Z"/><path class="cls-6" d="M828.63,728.76a24.21,24.21,0,0,1-8.49,0c0-.11,1.91,0,4.25,0S828.62,728.66,828.63,728.76Z"/><path class="cls-6" d="M834.33,728.7c.07.07-.16.4-.35.84s-.3.82-.4.81-.15-.46.08-1S834.26,728.63,834.33,728.7Z"/><path class="cls-6" d="M836.46,726c.07.07-.11.37-.41.68s-.6.49-.67.43.11-.37.41-.68S836.39,726,836.46,726Z"/><path class="cls-6" d="M839.53,724.79c0,.1-.41.09-.83.25s-.74.38-.81.31.16-.47.69-.65S839.56,724.7,839.53,724.79Z"/><path class="cls-6" d="M841.71,724.2c0,.09-.13.24-.37.34s-.46.1-.5,0,.13-.24.37-.33S841.68,724.11,841.71,724.2Z"/><path class="cls-7" d="M882,722.07l-1.11-2.44L907,706.51l4.59,10-1.59.85c-7.12,3.71-36.47,18.37-42,19.1C861.79,737.32,882,722.07,882,722.07Z"/><path class="cls-6" d="M911.7,715.77s-.14.1-.43.26l-1.27.67-4.72,2.39c-4,2-9.55,4.66-15.75,7.48s-11.88,5.24-16,6.95l-4.9,2-1.34.51a2.64,2.64,0,0,1-.47.16,2.23,2.23,0,0,1,.45-.22l1.31-.58,4.86-2.08c4.1-1.76,9.75-4.23,16-7s11.77-5.45,15.79-7.38l4.77-2.29,1.3-.61Z"/><path class="cls-6" d="M876.38,732.67a12,12,0,0,0-1.94-1.89,12.47,12.47,0,0,0-2.48-1.1,3.91,3.91,0,0,1,2.67.81A4,4,0,0,1,876.38,732.67Z"/><path class="cls-6" d="M882.39,725.17c0,.08-.63-.21-1.3-.64s-1.15-.85-1.1-.93.63.2,1.3.63S882.44,725.08,882.39,725.17Z"/><path class="cls-6" d="M884,723.06c0,.09-.58,0-1.22-.2s-1.14-.44-1.11-.53.58,0,1.22.2S884.05,723,884,723.06Z"/><path class="cls-6" d="M884.24,720c0,.09-.54.45-1.3.8a3.29,3.29,0,0,1-1.45.48c0-.08.54-.44,1.3-.8A3.45,3.45,0,0,1,884.24,720Z"/><path class="cls-6" d="M883.91,718a3,3,0,0,1-1.34,1.14,2.94,2.94,0,0,1-1.69.51,9.66,9.66,0,0,1,1.52-.82A8.87,8.87,0,0,1,883.91,718Z"/><path class="cls-6" d="M880.44,723.26a5.13,5.13,0,0,1-1.7.76,10.42,10.42,0,0,1-2,.43,5.48,5.48,0,0,1-1.23,0,1,1,0,0,1-.66-.34.73.73,0,0,1-.05-.8,3.43,3.43,0,0,1,4.27-.83,3.64,3.64,0,0,1,1.07.88c.2.26.27.43.25.44a5.28,5.28,0,0,0-1.43-1.1,3.43,3.43,0,0,0-1.89-.28,2.88,2.88,0,0,0-2,1c-.18.33.07.6.45.64a5.44,5.44,0,0,0,1.14,0,12.74,12.74,0,0,0,2-.34C879.77,723.5,880.42,723.21,880.44,723.26Z"/><path class="cls-6" d="M880,723.55a1.88,1.88,0,0,1-.73-1.09,3.14,3.14,0,0,1-.1-1.46,1.89,1.89,0,0,1,1-1.51c.42-.12,1.4.71,1.46,1s-.49.15-.52.41a5.52,5.52,0,0,1-.34,1.4,2.59,2.59,0,0,1-.66,1.13s.2-.46.43-1.21a6.78,6.78,0,0,0,.25-1.35c.07-.46-.07-1.18-.53-1.07s-.68.78-.79,1.23a3.1,3.1,0,0,0,0,1.33A6.62,6.62,0,0,0,880,723.55Z"/><path class="cls-6" d="M907.88,708.78c0,.06-.79.27-1.93,1a9.4,9.4,0,0,0-3.46,3.7,9.29,9.29,0,0,0-1,5c.11,1.32.41,2.1.35,2.12a1.8,1.8,0,0,1-.24-.54,7.45,7.45,0,0,1-.36-1.55,8.83,8.83,0,0,1,4.55-8.91,7.78,7.78,0,0,1,1.47-.63A1.78,1.78,0,0,1,907.88,708.78Z"/><path class="cls-6" d="M897.42,719.65a16.1,16.1,0,0,1-3.7,2.1,16.29,16.29,0,0,1-4,1.42c0-.1,1.74-.76,3.87-1.74S897.37,719.56,897.42,719.65Z"/><path class="cls-6" d="M902.59,717.26c.1,0,0,.43,0,.91s.07.87,0,.9-.32-.35-.32-.9S902.51,717.22,902.59,717.26Z"/><path class="cls-6" d="M903.45,713.94c.09,0,0,.39-.11.79s-.34.7-.43.66,0-.38.1-.78S903.35,713.91,903.45,713.94Z"/><path class="cls-6" d="M905.74,711.56c0,.1-.33.25-.66.57s-.51.64-.61.62,0-.5.37-.88S905.73,711.47,905.74,711.56Z"/><path class="cls-6" d="M907.49,710.13c.07.07,0,.28-.2.46s-.38.28-.45.21,0-.27.2-.46S907.42,710.06,907.49,710.13Z"/><path class="cls-5" d="M874.79,371.77l-4.86-59.35,25,.45s1.16-8.75-2.52-27.94c-2.26-11.77-10.1-19-18.89-23.28v-.16l-.77-.2a71.5,71.5,0,0,0-22.88-6l-30.67.36s-23.42-2.93-36.39,13.77c-5,6.44-20.45,50.47-20.45,50.47l36.81,17.72-3.5-24.41s.69,17.7,3,23.31c1.26,3.12,4.9,12.83,4.9,12.83L803,378.65Z"/><polygon class="cls-5" points="857.88 303.81 853.32 323.2 896.26 323.2 893.44 290.69 857.88 303.81"/><path class="cls-6" d="M896.26,323.2a32.07,32.07,0,0,0-5.68-.56c-3.52-.21-8.39-.38-13.77-.36s-10.25.26-13.77.54a31.32,31.32,0,0,0-5.67.7c0,.14,2.19.08,5.71,0s8.37-.23,13.73-.26,10.23,0,13.75.08S896.26,323.34,896.26,323.2Z"/><path class="cls-6" d="M856,290.53a26.07,26.07,0,0,0-.14,4.93c0,3.05.14,7.25.32,11.88s.4,8.84.6,11.88a25.84,25.84,0,0,0,.53,4.9,26,26,0,0,0,.14-4.93c0-3-.14-7.24-.32-11.88s-.4-8.84-.6-11.87A25,25,0,0,0,856,290.53Z"/><g class="cls-10"><path d="M817,307.33s9.54,70.76,36.37,68.89c0,0,12.08-.15,16-8.17v-3.17Z"/></g><g class="cls-10"><polygon points="856.02 294.7 850.89 329.39 854.21 335.48 859.69 323.58 857.37 323.52 856.02 294.7"/></g><path class="cls-6" d="M803.51,349.37a7.87,7.87,0,0,1-.72-1.66c-.42-1.09-1-2.67-1.61-4.65a138.4,138.4,0,0,1-4.11-15.7,114.53,114.53,0,0,1-2-16.11c-.09-2.07-.13-3.76-.09-4.92a7.17,7.17,0,0,1,.12-1.8c.14,0,.23,2.56.59,6.68a148.27,148.27,0,0,0,2.27,16c1.23,6.19,2.71,11.71,3.84,15.7l1.35,4.71A7.19,7.19,0,0,1,803.51,349.37Z"/><path class="cls-6" d="M814.36,369.7c-.23.07-.89-1.46-1.48-3.41s-.88-3.59-.66-3.66.9,1.46,1.49,3.41S814.59,369.63,814.36,369.7Z"/><path class="cls-6" d="M818.07,369.43c-.22.06-.94-2.23-1-5.17s.61-5.25.83-5.2,0,2.35,0,5.18S818.32,369.38,818.07,369.43Z"/><path class="cls-6" d="M799.91,338.45c-.11.22-8.68-3.85-19.13-9.07s-18.86-9.64-18.75-9.85,8.67,3.85,19.13,9.07S800,338.24,799.91,338.45Z"/><path class="cls-8" d="M815,261.41c.19-8.41.24-17.26.24-17.26s-10.79-2.08-12.67-16.27c-1.79-13.54,3.22-45.3,3.22-45.3h0c15.76-6,32.13-.56,42.93,12.21h0L846,263.07c-.31,7.93-7.37,14-15.86,13.58h0C821.61,276.24,814.82,269.43,815,261.41Z"/><path class="cls-6" d="M805,208a1.83,1.83,0,0,0,1.71,1.88,1.74,1.74,0,0,0,1.91-1.59,1.82,1.82,0,0,0-1.7-1.87A1.74,1.74,0,0,0,805,208Z"/><path class="cls-6" d="M804.3,205.58c.22.24,1.62-.74,3.57-.68s3.35,1.07,3.57.83-.11-.53-.72-1a4.92,4.92,0,0,0-2.85-1,4.69,4.69,0,0,0-2.85.84C804.41,205.05,804.19,205.47,804.3,205.58Z"/><path class="cls-6" d="M824.77,209.19a1.81,1.81,0,0,0,1.7,1.88,1.74,1.74,0,0,0,1.91-1.59,1.81,1.81,0,0,0-1.7-1.87A1.73,1.73,0,0,0,824.77,209.19Z"/><path class="cls-6" d="M824.64,206.82c.21.24,1.62-.74,3.56-.69s3.36,1.07,3.58.84-.11-.54-.73-1a5,5,0,0,0-2.85-1,4.85,4.85,0,0,0-2.85.84C824.74,206.28,824.53,206.71,824.64,206.82Z"/><path class="cls-6" d="M817.18,221.1a12.9,12.9,0,0,0-3.15-.65c-.5-.07-1-.18-1-.52a2.48,2.48,0,0,1,.37-1.47l1.57-3.75c2.18-5.35,3.78-9.75,3.56-9.84s-2.16,4.18-4.34,9.53c-.53,1.31-1,2.57-1.51,3.77a2.83,2.83,0,0,0-.31,2,1.21,1.21,0,0,0,.8.75,3.19,3.19,0,0,0,.84.14A12.66,12.66,0,0,0,817.18,221.1Z"/><path class="cls-9" d="M815.24,244.15a36,36,0,0,0,19.06-4.56s-4.84,9.59-19,7.9Z"/><path class="cls-6" d="M830.88,201.19c-.4.61-1.89.34-3.55,0s-3.13-.63-3.28-1.35,1.55-1.63,3.77-1.2S831.28,200.61,830.88,201.19Z"/><path class="cls-6" d="M811.48,198.32c-.15.72-1.74,1-3.57,1.07s-3.44,0-3.65-.73,1.33-1.77,3.53-1.87S811.64,197.63,811.48,198.32Z"/><path class="cls-9" d="M817.21,225.77a1,1,0,0,0-1.08.49,1.11,1.11,0,1,0,.67-.53"/><path class="cls-6" d="M817.67,226c.09-.08-.31-.56-1.16-.37a1.48,1.48,0,0,0-1.07,1,1.66,1.66,0,0,0,.59,1.77,1.64,1.64,0,0,0,1.87,0,1.41,1.41,0,0,0,.6-1.38c-.17-.88-.82-1-.84-.9s.23.42.17.93a.73.73,0,0,1-.4.61.82.82,0,0,1-.84,0,.87.87,0,0,1-.3-.81.81.81,0,0,1,.45-.61C817.2,226,817.61,226.08,817.67,226Z"/><path class="cls-6" d="M842.19,211.47c-1.69,3.89-5.79,6.9-5.22,11.1.37,2.72,2.11,5.25,1.77,8-.42,3.41-4,5.78-4.47,9.19-.62,4.17,3.44,7.42,5.06,11.31,2.37,5.68-.66,12.06-.73,18.2-.11,9.42,7.9,18.21,17.28,19,3.8.32,8.07-.83,10-4.09,1.62-2.69,1.3-6.11,2.27-9.09,1.45-4.45,5.69-7.71,6.59-12.3,1.63-8.37-8.49-15.3-7.83-23.81.29-3.63,2.53-6.8,3.48-10.32a15.12,15.12,0,0,0-3-13.45c-2.5-3-6.12-4.92-8.25-8.17-2.41-3.68-2.5-8.35-3.41-12.65a31.86,31.86,0,0,0-50.62-18.67s-2.42,11,8.83,12.79,16.46-.29,17.73,4.22c0,0-1.29,5.27,3.36,10.3S844.13,207,842.19,211.47Z"/><path class="cls-7" d="M860.13,287.46a4.62,4.62,0,0,1-1-.11,14.48,14.48,0,0,1-2.86-.77,20.23,20.23,0,0,1-8.71-6.44,23,23,0,0,1-3.69-6.59,26.39,26.39,0,0,1-1.52-8.53,35,35,0,0,1,1.2-9.49,41.63,41.63,0,0,1,1.59-4.81,47.34,47.34,0,0,0,1.83-4.78,9,9,0,0,0,0-4.88,26.49,26.49,0,0,0-1.89-4.55,31.31,31.31,0,0,1-1.94-4.5,9.73,9.73,0,0,1-.34-4.78c.66-3.13,2.56-5.45,3.68-7.83a14.88,14.88,0,0,0,1.51-7.08,16.66,16.66,0,0,0-3.71-9.8,28.92,28.92,0,0,0-2.82-2.75,11.59,11.59,0,0,1,3.08,2.53,16.7,16.7,0,0,1,4.06,10,15.46,15.46,0,0,1-1.47,7.42c-1.15,2.46-3,4.8-3.55,7.66s.78,5.86,2.26,8.76a26.37,26.37,0,0,1,2,4.7,9.75,9.75,0,0,1,0,5.33,46.29,46.29,0,0,1-1.86,4.86,43.34,43.34,0,0,0-1.57,4.71,34.36,34.36,0,0,0-1.22,9.27,24,24,0,0,0,4.9,14.75,20.56,20.56,0,0,0,8.34,6.51C858.72,287.22,860.15,287.36,860.13,287.46Z"/><path class="cls-7" d="M858.48,203.57a10.9,10.9,0,0,1-2.48.37,25.85,25.85,0,0,1-6.85-.18,13,13,0,0,1-8.63-5.24c-1.11-1.68-1.55-3.71-2.27-5.58a9.15,9.15,0,0,0-3.79-4.67c-3.64-2.31-7.92-2.59-11.66-3.05s-7.29-1.22-9.69-3a9.58,9.58,0,0,1-4-5.55,5.89,5.89,0,0,1-.12-1.87c.06-.43.1-.65.13-.64a13.1,13.1,0,0,0,.32,2.43,9.55,9.55,0,0,0,4,5.13c2.31,1.64,5.69,2.35,9.43,2.73s8.14.65,12,3.11a10.06,10.06,0,0,1,4.11,5.09c.74,2,1.15,3.93,2.15,5.46a12.54,12.54,0,0,0,8.08,5.07,29.16,29.16,0,0,0,6.71.45A17,17,0,0,1,858.48,203.57Z"/><path class="cls-7" d="M854.35,190a5.14,5.14,0,0,1-1.94.28,11.9,11.9,0,0,1-8.34-3.33,15.63,15.63,0,0,1-2.58-3.44c-1.5-2.53-2.94-5.65-6-6.93s-6.4-1-9.32-.82a28.57,28.57,0,0,1-7.94-.07,9.82,9.82,0,0,1-4.91-2.2,5.42,5.42,0,0,1-1-1.1c-.18-.28-.27-.43-.24-.45s.46.54,1.43,1.29a10.33,10.33,0,0,0,4.8,1.86,29.77,29.77,0,0,0,7.78-.13c2.93-.23,6.38-.6,9.73.82a9.63,9.63,0,0,1,4,3.3,44.75,44.75,0,0,1,2.42,4,15.52,15.52,0,0,0,2.39,3.33,11.39,11.39,0,0,0,2.86,2.11,12.1,12.1,0,0,0,5,1.39C853.65,190.06,854.34,190,854.35,190Z"/><path class="cls-7" d="M865.1,283.87c-.09,0,.44-1.11,1-3.15a28.46,28.46,0,0,0,1.11-8.91,27.48,27.48,0,0,0-3.54-12.7c-1.22-2.17-3.07-4.11-4.57-6.51a11.85,11.85,0,0,1-1.68-4,9.15,9.15,0,0,1,.37-4.49c.93-2.86,2.6-5.28,3-7.92s-.89-5.06-2.15-7.21a33,33,0,0,1-1.78-3.3,11.65,11.65,0,0,1-.94-3.47,30.39,30.39,0,0,1,.18-6.34c.48-3.8.13-6.92-.78-8.84a7.94,7.94,0,0,0-2-2.6s.08,0,.2.1a2.73,2.73,0,0,1,.53.38,6.07,6.07,0,0,1,1.54,2c1,1.94,1.5,5.2,1.09,9a31.8,31.8,0,0,0-.08,6.2,15.86,15.86,0,0,0,2.69,6.46,21.27,21.27,0,0,1,1.81,3.53,8.36,8.36,0,0,1,.5,4.2c-.4,2.9-2.11,5.36-3,8.07a8.22,8.22,0,0,0-.35,4.07,11.05,11.05,0,0,0,1.55,3.72c1.42,2.3,3.28,4.27,4.54,6.55a27.43,27.43,0,0,1,3.46,13.08,26.83,26.83,0,0,1-1.4,9,19.43,19.43,0,0,1-1,2.29A3.82,3.82,0,0,1,865.1,283.87Z"/><path class="cls-6" d="M797.38,593.61s-11.2-106.13-11.84-145.34,17.63-77.91,17.63-77.91l71.62-3s14.16,39.79,14.41,56.5c.5,32.48-8.63,64.56-7.58,90.33l2.4,79.45"/><path class="cls-11" d="M886.42,463.14a11,11,0,0,1-1.17.89l-.66.46c-.22.19-.44.43-.69.67a10.55,10.55,0,0,0-1.59,1.78c-2.32,2.84-4,7.9-5.61,14.21a48.28,48.28,0,0,1-3.62,10.1,18.56,18.56,0,0,1-1.59,2.51c-.31.4-.6.83-.94,1.21l-1.1,1.1a18,18,0,0,1-5.39,3.46c-4,1.76-8.53,2.59-12.67,4.66s-7.28,6-9.19,10.48-3.24,9.23-4.92,13.65-3.9,8.64-7.48,11.34-7.92,3.43-11.72,3.67-7.43.11-10.63.6a16.79,16.79,0,0,0-8,3,11.22,11.22,0,0,0-3.72,5.25,7.87,7.87,0,0,0-.28,4.08c.19.93.45,1.38.39,1.4a4.35,4.35,0,0,1-.56-1.36,7.74,7.74,0,0,1,.13-4.22,11.35,11.35,0,0,1,3.74-5.52,17.19,17.19,0,0,1,8.23-3.26c3.26-.53,6.87-.45,10.67-.71s8-.93,11.29-3.59,5.54-6.67,7.16-11,2.87-9.1,4.93-13.7,5.24-8.79,9.6-10.88,8.83-2.95,12.73-4.64a17.08,17.08,0,0,0,5.19-3.29l1.06-1c.33-.36.6-.77.9-1.15a17.28,17.28,0,0,0,1.55-2.41,47.5,47.5,0,0,0,3.67-9.92c1.68-6.28,3.48-11.43,5.93-14.25a10.33,10.33,0,0,1,1.69-1.77c.26-.24.49-.47.73-.65l.69-.44A10,10,0,0,1,886.42,463.14Z"/><path class="cls-11" d="M886.86,414a8.59,8.59,0,0,1,.09,1.42,17.67,17.67,0,0,1-.5,4.06c-.83,3.46-3.36,8.21-8.09,12.51a48,48,0,0,1-8.39,6.13c-3.2,1.9-6.74,3.72-10.37,5.76A54.31,54.31,0,0,0,849,451.38c-3.31,3.05-5.8,7.06-8,11.3s-4.26,8.55-7,12.28a29.18,29.18,0,0,1-4.55,5,28.69,28.69,0,0,1-5.4,3.6,67.21,67.21,0,0,1-11.13,4.27c-3.55,1.1-6.87,2.07-9.77,3.28a38.54,38.54,0,0,0-7.45,4,23.19,23.19,0,0,0-4.67,4.31,22.39,22.39,0,0,0-2.81,4.67,8.54,8.54,0,0,1,.46-1.35,16.73,16.73,0,0,1,2.08-3.52,22.9,22.9,0,0,1,4.66-4.5,37.7,37.7,0,0,1,7.5-4.16c2.92-1.27,6.25-2.28,9.78-3.41a66.81,66.81,0,0,0,11-4.29,27.79,27.79,0,0,0,5.24-3.52,29,29,0,0,0,4.39-4.89c2.64-3.65,4.62-7.93,6.9-12.2s4.8-8.38,8.22-11.51a54.67,54.67,0,0,1,10.81-7.54c3.66-2,7.2-3.83,10.4-5.69a48.49,48.49,0,0,0,8.34-6A22.22,22.22,0,0,0,886.86,414Z"/><path class="cls-11" d="M785.9,453.89a1.08,1.08,0,0,1-.14-.32,6.8,6.8,0,0,1-.32-1,7.9,7.9,0,0,1,.16-4c.93-3.38,4.6-7.59,10.53-9.7,3-1,6.29-1.63,9.78-2.54s7.2-2.23,10-5.11a21.2,21.2,0,0,0,3.55-5,51.51,51.51,0,0,0,2.48-6c1.49-4.15,2.74-8.66,5.27-12.75a20.31,20.31,0,0,1,10.84-8.43c4.23-1.56,8.49-2.24,12.45-3.16a41.38,41.38,0,0,0,10.82-3.68,22.63,22.63,0,0,0,7.32-6.6,24.77,24.77,0,0,0,4.65-13.46,39.74,39.74,0,0,0-.35-5.32,17.73,17.73,0,0,1,.69,5.32A24.59,24.59,0,0,1,869.14,386a23.16,23.16,0,0,1-7.47,6.87,41.65,41.65,0,0,1-11,3.83c-4,.94-8.21,1.65-12.32,3.17a19.57,19.57,0,0,0-10.41,8.1c-2.44,3.94-3.69,8.4-5.2,12.57a52.78,52.78,0,0,1-2.55,6.07,22.2,22.2,0,0,1-3.72,5.16c-3,3-6.9,4.33-10.38,5.23s-6.86,1.47-9.77,2.43c-5.76,2-9.42,6-10.4,9.22a8.1,8.1,0,0,0-.31,3.85C785.79,453.42,785.94,453.88,785.9,453.89Z"/><path class="cls-11" d="M880.7,543.63a4.43,4.43,0,0,1,.11,1,11,11,0,0,1-.3,3,17.07,17.07,0,0,1-6.29,9,28,28,0,0,1-6.59,3.92c-2.54,1.08-5.34,1.95-8.27,2.86a68.15,68.15,0,0,0-9,3.28,26.12,26.12,0,0,0-8.18,6c-2.42,2.54-4.52,5.32-6.84,7.77a31.42,31.42,0,0,1-7.66,6,33.62,33.62,0,0,1-15.81,4.11A31.14,31.14,0,0,1,801,588.74a20.6,20.6,0,0,1-2.76-1.18,5.09,5.09,0,0,1-.92-.51,5.57,5.57,0,0,1,1,.35,27,27,0,0,0,2.8,1,32.89,32.89,0,0,0,10.76,1.51,33.53,33.53,0,0,0,15.43-4.2,30.54,30.54,0,0,0,7.44-5.88c2.27-2.41,4.35-5.18,6.83-7.78A26.59,26.59,0,0,1,850,566a66.17,66.17,0,0,1,9.12-3.28c2.94-.9,5.73-1.73,8.23-2.76a27.84,27.84,0,0,0,6.49-3.74,17.13,17.13,0,0,0,6.34-8.58A19.59,19.59,0,0,0,880.7,543.63Z"/><path class="cls-8" d="M872.53,323.27l-13.84.33a22.64,22.64,0,0,1-3.14,7.86c-11.58-20.11-20.55-47-22.78-57.86.32-1.08.71-2.28,1.19-3.61.55-1.55.07-4.47-.19-6.09-.39-2.41-1.06-5.65-1.26-7.15-.62-4.58-1.36-5.3-3-4.78-2.17.71.89,12.85-.89,13.11-1,.14-2.12-4-2.46-7.43s-1.89-13.91-3-14.61c-1.66-1-3.1.59-2.68,4s1,13.7-.85,13.84-3.27-17.27-3.27-17.27.28-3.79-1.8-3.7c-3.77.17-.83,18.52-.51,20.26.23,1.21-1.73,1.43-1.9.11s-1.09-17.4-4.92-17.27c-2.94.1,2.28,15.12.63,18.6s-2.8-11.82-5.61-11.61c-1,.07-1.82.28.1,8.94,1,4.66,4.07,13.22,6.72,20.31,4.45,24,24,100.86,54.64,86.8,17.15-7.87,24.11-42.76,24.11-42.76Z"/><path class="cls-9" d="M813.44,261.33a.94.94,0,0,0,1-1c0-1-.2-2.54-.44-4.48a65.46,65.46,0,0,1-.76-7.08c0-1.4,0-2.89.09-4.48a16,16,0,0,1,.24-2.39c.13-.75.64-1.62,1.22-1.51h.09c.59,0,1.06.43,1.25,1.14a6.49,6.49,0,0,1,.21,2.22v.06a134.63,134.63,0,0,0,1.78,13.87c.14.63.27,1.25.47,1.88a7.22,7.22,0,0,0,.34.95,2.91,2.91,0,0,0,.29.5.88.88,0,0,0,.69.43,1.25,1.25,0,0,0,1.05-.87,6.2,6.2,0,0,0,.31-1,15.66,15.66,0,0,0,.26-2,59.51,59.51,0,0,0-.11-8.32,19.67,19.67,0,0,1-.17-4.16,2.26,2.26,0,0,1,.82-1.55.87.87,0,0,1,.71-.09,1.72,1.72,0,0,1,.4.17c.11.1.08.06.18.24a20.42,20.42,0,0,1,1.15,4.18c.3,1.47.55,3,.79,4.49s.45,3.05.63,4.59a31.27,31.27,0,0,0,.77,4.73,16,16,0,0,0,.74,2.35,4.41,4.41,0,0,0,.69,1.18,1,1,0,0,0,1,.36,1.06,1.06,0,0,0,.67-.75,8.27,8.27,0,0,0,.18-2.58c0-.83-.1-1.64-.17-2.46-.12-1.4-.26-2.78-.3-4.15a12,12,0,0,1,.05-2,3.18,3.18,0,0,1,.2-.87.71.71,0,0,1,.16-.24s0,0,.06,0l.22-.06c1.1-.45,1.47,1.08,1.76,2.32s.42,2.62.68,3.93c.44,2.62,1,5.22,1.29,7.72a8.86,8.86,0,0,1-.15,3.58q-.59,1.8-1.17,3.57l0,.1,0,.12a194,194,0,0,0,7.44,24c2.63,7.1,5.26,13.23,7.59,18.24s4.39,8.88,5.83,11.52c.72,1.25,1.3,2.24,1.73,3a7.68,7.68,0,0,0,.64,1,8.61,8.61,0,0,0-.51-1.07l-1.61-3c-1.35-2.68-3.34-6.57-5.58-11.61s-4.81-11.17-7.38-18.27a198,198,0,0,1-7.27-23.95v.21c.38-1.16.77-2.33,1.16-3.51a9.63,9.63,0,0,0,.21-4c-.3-2.6-.84-5.13-1.28-7.76-.25-1.3-.41-2.63-.68-4a8,8,0,0,0-.68-2.05,2,2,0,0,0-.92-.93,2,2,0,0,0-1.31,0l-.28.08a1.23,1.23,0,0,0-.37.21,1.7,1.7,0,0,0-.43.59,4.18,4.18,0,0,0-.27,1.14,15.43,15.43,0,0,0-.06,2.14c0,1.41.18,2.81.3,4.2.07.81.14,1.62.17,2.42a7.62,7.62,0,0,1-.12,2.23c0,.18-.12.14,0,.23h0c0-.06,0,.08,0,.06v0a.13.13,0,0,1,0-.06s0-.07,0-.07a.41.41,0,0,1-.1-.1,3.75,3.75,0,0,1-.51-.9,15.68,15.68,0,0,1-.7-2.2,31.19,31.19,0,0,1-.75-4.61c-.19-1.57-.41-3.11-.64-4.63s-.5-3-.81-4.53a20.56,20.56,0,0,0-1.26-4.44,1.43,1.43,0,0,0-.52-.58,2.62,2.62,0,0,0-.62-.26,1.8,1.8,0,0,0-1.41.19,3.14,3.14,0,0,0-1.23,2.16,7.93,7.93,0,0,0,0,2.28c.08.71.15,1.41.2,2.11a59.38,59.38,0,0,1,.15,8.19,13.43,13.43,0,0,1-.24,1.92,4.32,4.32,0,0,1-.25.86,1.27,1.27,0,0,1-.18.31c-.06.14-.11,0-.11.19.09-.17,0-.07-.06-.22a2,2,0,0,1-.2-.34,7.79,7.79,0,0,1-.31-.85,18.44,18.44,0,0,1-.46-1.81A138.16,138.16,0,0,1,817,243.75v.05a7.06,7.06,0,0,0-.27-2.47,2.63,2.63,0,0,0-.65-1.11,1.74,1.74,0,0,0-1.23-.45H815a1.45,1.45,0,0,0-1.44.69,3.7,3.7,0,0,0-.51,1.29,15.76,15.76,0,0,0-.22,2.5c-.06,1.6-.07,3.1,0,4.51a60.09,60.09,0,0,0,.91,7.11c.29,1.94.51,3.44.6,4.45a.78.78,0,0,1-.48.87C813.57,261.3,813.44,261.31,813.44,261.33Z"/><path class="cls-8" d="M705.18,346.16a35.77,35.77,0,0,0-9.63,1.1c-8.59,2.26-23.41,11.24-24,22.34h10.76s-6,12.83-4.25,11.64c4.59-3.08,13.74-12.38,13.74-12.38Z"/><path class="cls-6" d="M852,153c-.24,0-1.22-8.88-2.18-19.87s-1.56-19.94-1.32-20,1.21,8.88,2.18,19.88S852.25,153,852,153Z"/><path class="cls-6" d="M899.23,113.72c.2.14-7.08,10.7-16.24,23.58s-16.75,23.21-17,23.07,7.08-10.69,16.25-23.57S899,113.59,899.23,113.72Z"/><path class="cls-6" d="M918.85,161.56c0,.24-8.44,2.18-19,4.34s-19.08,3.73-19.13,3.49,8.44-2.17,19-4.34S918.81,161.33,918.85,161.56Z"/></g><g id="Folder"><path class="cls-5" d="M353.46,389.9,294.68,692.12,287,731.68l392.43-1.93c17.61-.09,33.22-15.73,38.89-39l69.58-285.33c4.3-17.63-5.14-36-18.51-36l-397.18.41C363.43,369.92,355.76,378.11,353.46,389.9Z"/><g class="cls-12"><path d="M353.46,389.9,294.68,692.12,287,731.68l392.43-1.93c17.61-.09,33.22-15.73,38.89-39l69.58-285.33c4.3-17.63-5.14-36-18.51-36l-397.18.41C363.43,369.92,355.76,378.11,353.46,389.9Z"/></g><path class="cls-5" d="M641.77,671.64,600.22,336.83c-1.7-13.72-12.63-23.95-25.54-23.91l-91.1.3a24.78,24.78,0,0,0-18,8l-43.27,46-253.39,1.33c-15.48.08-27.38,14.73-25.32,31.19l38.57,309.46c1.71,13.7,12.62,23.92,25.5,23.89l441.61-.87c49.18,1,53.88-13.51,53.88-13.51C646.79,731.16,641.77,671.68,641.77,671.64Z"/><g class="cls-12"><polygon class="cls-13" points="451.35 604.63 436.46 620.63 321.75 517.44 336.64 501.44 451.35 604.63"/><polygon class="cls-13" points="430.21 497.9 446.67 512.7 342.88 624.18 326.42 609.37 430.21 497.9"/></g></g><g id="Speech_Bubble" data-name="Speech Bubble"><path class="cls-5" d="M704.83,172.53a3.09,3.09,0,0,1-1.88-2.72l-.67-15.43a3.1,3.1,0,0,1,3.81-3.16,9.62,9.62,0,0,0,7.51-1.48,8.66,8.66,0,0,0,3.88-5.68,8.87,8.87,0,0,0-1.87-6.68,9.86,9.86,0,0,0-6.55-3.94c-5-.58-10.41,3.26-11.8,8.37a3.1,3.1,0,0,1-6-1.62c2.18-8.05,10.48-13.84,18.49-12.91a15.94,15.94,0,0,1,10.79,6.36,15.07,15.07,0,0,1,3,11.42A14.86,14.86,0,0,1,717,154.9a16.14,16.14,0,0,1-8.41,2.75l.52,11.89a3.11,3.11,0,0,1-3,3.24A3,3,0,0,1,704.83,172.53Z"/><path class="cls-5" d="M709.37,178.83a2.54,2.54,0,1,1-2.7-2.35A2.54,2.54,0,0,1,709.37,178.83Z"/><path class="cls-6" d="M651.41,150.77a7.07,7.07,0,0,0,.15-1c.08-.73.18-1.71.32-3a35.29,35.29,0,0,1,.81-4.78c.22-.93.33-2,.67-3s.67-2.17,1-3.36a57.22,57.22,0,0,1,8.27-15.83,56.34,56.34,0,0,1,29.78-20.29,56.16,56.16,0,0,1,14.21-1.86,56.79,56.79,0,0,1,7.54.45c1.28.12,2.53.46,3.81.69a24.8,24.8,0,0,1,3.83.92,53.1,53.1,0,0,1,14.87,6.74,55.68,55.68,0,0,1,22,27.59,54.21,54.21,0,0,1,3.26,19,53.2,53.2,0,0,1-3.48,19.51l-.75,1.9-.1.25.1.24,12.22,28.15.7-.8-24.89-9.56-.31-.12-.24.23a55.67,55.67,0,0,1-23.51,13.58,55.3,55.3,0,0,1-44.89-7,57,57,0,0,1-14-13,61.2,61.2,0,0,1-7.67-13.9,62,62,0,0,1-3-11.59c-.2-1.63-.37-3.07-.52-4.33s-.06-2.3-.09-3.17,0-1.46-.06-1.95a4.73,4.73,0,0,0-.05-.66,3,3,0,0,0,0,.66q0,.72,0,1.95v3.19c.12,1.27.27,2.73.44,4.36a60.15,60.15,0,0,0,2.84,11.74,60.93,60.93,0,0,0,7.62,14.13,57.13,57.13,0,0,0,14.12,13.33,56,56,0,0,0,45.56,7.28,56.51,56.51,0,0,0,24-13.77l-.55.12,24.89,9.6,1.25.49-.55-1.28-12.21-28.16v.49l.77-1.94a54.38,54.38,0,0,0,3.55-20,55.36,55.36,0,0,0-3.35-19.38,56.58,56.58,0,0,0-22.46-28.11,53.64,53.64,0,0,0-15.15-6.81,26.63,26.63,0,0,0-3.9-.93c-1.3-.22-2.58-.56-3.87-.68a57.05,57.05,0,0,0-7.67-.42A55.64,55.64,0,0,0,654,135.49c-.35,1.19-.68,2.33-1,3.4s-.43,2.1-.63,3a33.54,33.54,0,0,0-.7,4.83c-.09,1.27-.17,2.26-.22,3A6.53,6.53,0,0,0,651.41,150.77Z"/></g></svg>