<svg id="Capa_1" data-name="Capa 1" xmlns="http://www.w3.org/2000/svg" viewBox="0 0 1000 998.66"><path d="M1000,85.85V624.61a86.78,86.78,0,0,1-86.78,86.75H86.75A86.75,86.75,0,0,1,0,624.61V85.85A85.85,85.85,0,0,1,85.84,0H914.15A85.87,85.87,0,0,1,1000,85.85Z" fill="#c4e2f2"/><path d="M701.69,827.13l-201.7,46-201.71-46,27.63-115.76,165.51-60.86,182.64,60.86L683,748.84Z" fill="#2d303b"/><path d="M1000,614.39v10.2a86.78,86.78,0,0,1-86.78,86.77H86.75A86.76,86.76,0,0,1,0,624.59v-10.2Z" fill="#3c3f4d"/><path d="M701.69,827.13H393.18l18.69-78.29H683Z" fill="#3c3f4d"/><path d="M820.56,891.57v27.49H179.43V891.57a64.44,64.44,0,0,1,64.44-64.44H756.12A64.44,64.44,0,0,1,820.56,891.57Z" fill="#2d303b"/><path d="M893.08,711.36H440.25l22.18-213.54H870.9Z" fill="#83b2c6"/><path d="M467.53,257.24l-5.35,40.81L445.06,428.44a47.16,47.16,0,0,1-46.78,41H193.92a47.17,47.17,0,0,1-46.78-41l-22.47-171.2L296.1,211.32Z" fill="#1f81a3"/><path d="M462.18,298.05,445.06,428.44a47.16,47.16,0,0,1-46.78,41H259.22a47.16,47.16,0,0,1-46.77-41l-11.61-88.37a37.19,37.19,0,0,1,36.87-42Z" fill="#2c92bf"/><path d="M491,211.07v25a21.19,21.19,0,0,1-21.18,21.19H122.39a21.19,21.19,0,0,1-21.19-21.19v-25a21.19,21.19,0,0,1,21.19-21.18H469.82A21.19,21.19,0,0,1,491,211.07Z" fill="#1f81a3"/><path d="M491,211.07v25a21.19,21.19,0,0,1-21.18,21.19H204a21.19,21.19,0,0,1-21.18-21.19v-25A21.19,21.19,0,0,1,204,189.89h265.8A21.19,21.19,0,0,1,491,211.07Z" fill="#2c92bf"/><path d="M296.1,94a34.69,34.69,0,0,0-34.69,34.69V294a34.7,34.7,0,1,0,69.39,0V128.66A34.7,34.7,0,0,0,296.1,94Z" fill="#3c3f4d"/><path d="M891,711.36H438.2l10.07-97H881Z" fill="#2d303b"/><path d="M897.42,497.81H489l-52,500.85H949.46Z" fill="#ff491f"/><path d="M657.81,659.75H373.88L337.71,998.66H694Z" fill="#ffe14d"/><path d="M803.39,562.1a15.31,15.31,0,0,1-15.31-15.31v-101a94.89,94.89,0,1,0-189.78,0v101a15.31,15.31,0,1,1-30.61,0v-101a125.51,125.51,0,1,1,251,0v101A15.32,15.32,0,0,1,803.39,562.1Z" fill="#fff"/><path d="M515.85,868.48a81.22,81.22,0,0,1-81.13-81.12V721.55a15.31,15.31,0,0,1,30.62,0v65.81a50.51,50.51,0,1,0,101,0V721.55a15.31,15.31,0,0,1,30.61,0v65.81A81.2,81.2,0,0,1,515.85,868.48Z" fill="#3c3f4d"/><path d="M644.68,170.79h-65.3a15.31,15.31,0,1,1,0-30.61h65.3a15.31,15.31,0,1,1,0,30.61Z" fill="#ff491f"/><path d="M924.27,170.79H712a15.31,15.31,0,1,1,0-30.61H924.27a15.31,15.31,0,1,1,0,30.61Z" fill="#3c3f4d"/><path d="M644.68,242.23h-65.3a15.31,15.31,0,1,1,0-30.62h65.3a15.31,15.31,0,1,1,0,30.62Z" fill="#ff491f"/><path d="M924.27,242.23H712a15.31,15.31,0,1,1,0-30.62H924.27a15.31,15.31,0,1,1,0,30.62Z" fill="#3c3f4d"/></svg>